<?xml version="1.0" encoding="utf-8"?>
<!-- Generator: Adobe Illustrator 17.1.0, SVG Export Plug-In . SVG Version: 6.00 Build 0)  -->
<!DOCTYPE svg PUBLIC "-//W3C//DTD SVG 1.1//EN" "http://www.w3.org/Graphics/SVG/1.1/DTD/svg11.dtd">
<svg version="1.1" id="Layer_1" xmlns="http://www.w3.org/2000/svg" xmlns:xlink="http://www.w3.org/1999/xlink" x="0px" y="0px"
	 width="350" height="80" xml:space="preserve">
<path style="fill-rule:evenodd;clip-rule:evenodd;fill:#CFD2D5;" d="M165.291,20.611c0.797,0.139,1.524,0.328,2.181,0.567
	c0.658,0.239,1.276,0.518,1.854,0.837c0.411,0.227,0.818,0.463,1.219,0.71l-1.637,3.098c-1.755-1.371-3.39-2.141-4.883-2.141
	c-1.53,0-2.741,0.566-3.458,1.788c-0.638,1.087-0.945,2.345-0.945,3.748v4.718h9.253v3.092h-9.253v22.598h-3.847V36.963h-5.288
	v-3.092h5.288v-4.655c0-1.126,0.121-2.241,0.362-3.347c0.237-1.084,0.617-2.023,1.134-2.827c0.502-0.782,1.184-1.419,2.057-1.913
	c0.839-0.474,1.891-0.729,3.186-0.729C163.561,20.4,164.487,20.47,165.291,20.611z"/>
<path style="fill-rule:evenodd;clip-rule:evenodd;fill:#CFD2D5;" d="M187.607,33.63c0.82,0.209,1.652,0.517,2.497,0.928
	l-1.677,3.447c-0.586-0.265-1.172-0.477-1.899-0.697c-0.737-0.224-1.425-0.344-2.057-0.344c-1.175,0-2.237,0.215-3.166,0.668
	c-0.906,0.441-1.663,1.041-2.256,1.8c-0.583,0.746-1.01,1.604-1.284,2.564c-0.271,0.949-0.404,1.957-0.404,3.022l0,14.607h-3.847
	V33.871h3.847l0,3.306l1.132-0.949c1.286-1.078,2.35-1.845,3.198-2.318c0.794-0.443,1.674-0.668,2.654-0.668
	C185.512,33.242,186.597,33.372,187.607,33.63z"/>
<path style="fill-rule:evenodd;clip-rule:evenodd;fill:#CFD2D5;" d="M212.942,33.676c1.55,0.755,2.844,1.774,3.89,3.058
	c1.055,1.294,1.877,2.813,2.461,4.567c0.517,1.551,0.839,3.21,0.964,4.979h-22.024l0.1,0.777c0.392,3.045,1.448,5.447,3.234,7.119
	c1.778,1.664,4.008,2.483,6.639,2.483c2.062,0,3.939-0.395,5.617-1.201c1.396-0.67,2.927-1.603,4.594-2.793l0.968,4.009
	c-1.609,1.062-3.397,1.944-5.366,2.644c-2.119,0.754-4.139,1.125-6.064,1.125c-2.279,0-4.277-0.356-6.006-1.052
	c-1.739-0.7-3.196-1.683-4.381-2.948c-1.192-1.272-2.11-2.775-2.752-4.519c-0.64-1.739-0.965-3.682-0.965-5.837
	c0-2.024,0.324-3.859,0.961-5.512c0.639-1.656,1.552-3.074,2.74-4.261c1.187-1.186,2.625-2.112,4.326-2.772
	c1.694-0.658,3.591-0.992,5.699-0.992C209.632,32.549,211.414,32.932,212.942,33.676z M207.389,36.082
	c-1.81,0-3.439,0.489-4.862,1.476c-1.435,0.995-2.615,2.57-3.57,4.654l-0.449,0.98l17.378-0.072l-0.442-0.97
	C213.65,38.212,210.972,36.082,207.389,36.082z"/>
<path style="fill-rule:evenodd;clip-rule:evenodd;fill:#CFD2D5;" d="M243.192,33.676c1.55,0.755,2.844,1.774,3.891,3.058
	c1.055,1.294,1.877,2.813,2.461,4.567c0.517,1.551,0.839,3.21,0.964,4.979h-22.024l0.1,0.777c0.391,3.045,1.447,5.447,3.234,7.119
	c1.778,1.664,4.008,2.483,6.639,2.483c2.062,0,3.939-0.395,5.617-1.201c1.395-0.67,2.926-1.603,4.593-2.793l0.968,4.009
	c-1.61,1.062-3.397,1.944-5.367,2.644c-2.119,0.754-4.139,1.125-6.063,1.125c-2.279,0-4.277-0.356-6.007-1.052
	c-1.739-0.7-3.195-1.683-4.381-2.948c-1.192-1.272-2.11-2.775-2.752-4.519c-0.64-1.739-0.965-3.682-0.965-5.837
	c0-2.024,0.324-3.859,0.961-5.512c0.639-1.656,1.552-3.074,2.74-4.261c1.186-1.186,2.625-2.112,4.326-2.772
	c1.694-0.658,3.59-0.992,5.699-0.992C239.882,32.549,241.664,32.932,243.192,33.676z M237.639,36.082
	c-1.81,0-3.438,0.489-4.862,1.476c-1.435,0.995-2.615,2.57-3.57,4.654l-0.449,0.98l17.378-0.072l-0.442-0.97
	C243.9,38.212,241.222,36.082,237.639,36.082z"/>
<path style="fill-rule:evenodd;clip-rule:evenodd;fill:#0789BC;" d="M21.886,45.125c0.853,0.33,1.59,0.772,2.217,1.323
	c0.615,0.541,1.116,1.217,1.498,2.039c0.367,0.788,0.565,1.784,0.565,3.014c0,1.363-0.301,2.569-0.89,3.632
	c-0.602,1.089-1.408,2.012-2.423,2.773c-1.023,0.767-2.187,1.351-3.5,1.749c-1.317,0.399-2.697,0.6-4.144,0.6
	c-1.775,0-3.405-0.272-4.897-0.809c-1.341-0.483-2.703-1.219-4.087-2.217l1.776-3.143c0.561,0.399,1.069,0.739,1.526,1.023
	c0.641,0.398,1.27,0.713,1.887,0.942c0.613,0.227,1.249,0.386,1.907,0.477c0.636,0.088,1.35,0.133,2.14,0.133
	c0.615,0,1.272-0.095,1.966-0.274c0.717-0.185,1.398-0.474,2.042-0.865c0.664-0.403,1.225-0.916,1.678-1.536
	c0.495-0.677,0.731-1.474,0.731-2.358c0-1.043-0.343-1.94-1.071-2.614c-0.638-0.591-1.416-1.063-2.321-1.425
	c-0.353-0.164-0.762-0.231-1.194-0.237c-0.215-0.041-0.45-0.071-0.704-0.093c-0.233-0.019-0.466-0.048-0.699-0.087l-2.805-0.562
	c-0.938-0.203-1.839-0.457-2.715-0.763c-0.83-0.289-1.541-0.691-2.143-1.198c-0.592-0.499-1.068-1.122-1.427-1.878
	c-0.343-0.723-0.531-1.644-0.531-2.789c0-1.248,0.253-2.319,0.738-3.234c0.498-0.938,1.176-1.732,2.042-2.385
	c0.876-0.662,1.884-1.173,3.031-1.529c1.145-0.355,2.377-0.536,3.698-0.536c0.713,0,1.494,0.091,2.346,0.269
	c0.873,0.183,1.747,0.427,2.621,0.732c0.878,0.307,1.726,0.654,2.543,1.042c0.617,0.293,1.187,0.58,1.711,0.861l-1.304,3.551
	c-1.227-0.879-2.396-1.547-3.507-1.991c-1.339-0.536-2.727-0.805-4.159-0.805c-0.399,0-0.887,0.032-1.464,0.099
	c-0.601,0.07-1.173,0.209-1.714,0.421c-0.577,0.226-1.082,0.567-1.509,1.018c-0.493,0.523-0.723,1.182-0.723,1.921
	c0,0.964,0.326,1.791,1.033,2.384c0.594,0.499,1.293,0.887,2.076,1.163c0.394,0.131,0.815,0.254,1.252,0.363
	c0.434,0.108,0.889,0.206,1.366,0.293c0.445,0.081,0.901,0.182,1.366,0.303c0.5,0.131,0.989,0.239,1.467,0.326
	C20.101,44.49,21.001,44.783,21.886,45.125z"/>
<path style="fill-rule:evenodd;clip-rule:evenodd;fill:#0789BC;" d="M50.53,37.152H39.199v13.845c0,1.69,0.496,3.084,1.579,4.067
	c1.042,0.946,2.335,1.406,3.831,1.406c0.414,0,0.782-0.024,1.105-0.07c0.333-0.048,0.677-0.13,1.033-0.248
	c0.337-0.113,0.72-0.27,1.147-0.472l0.901-0.45l1.219,2.917c-1.096,0.509-2.22,0.973-3.375,1.393
	c-1.331,0.484-2.509,0.714-3.541,0.714c-2.63,0-4.514-0.772-5.776-2.219c-1.3-1.492-1.971-3.399-1.971-5.779V37.089h-6.295v-3.28
	h6.295v-5.66l3.847-1.205v6.931l11.331-0.063V37.152z"/>
<path style="fill-rule:evenodd;clip-rule:evenodd;fill:#0789BC;" d="M67.726,33.567c0.82,0.209,1.652,0.517,2.497,0.928
	l-1.677,3.446c-0.586-0.265-1.171-0.477-1.899-0.697c-0.738-0.223-1.426-0.344-2.057-0.344c-1.175,0-2.236,0.215-3.166,0.668
	c-0.906,0.442-1.662,1.041-2.256,1.801c-0.583,0.746-1.009,1.603-1.284,2.564c-0.271,0.949-0.404,1.957-0.404,3.022v14.608h-3.847
	V33.809h3.847v3.306l1.131-0.949c1.286-1.079,2.35-1.845,3.198-2.318c0.794-0.443,1.674-0.668,2.654-0.668
	C65.631,33.179,66.717,33.31,67.726,33.567z"/>
<path style="fill-rule:evenodd;clip-rule:evenodd;fill:#0789BC;" d="M93.061,33.614c1.55,0.755,2.844,1.774,3.891,3.058
	c1.055,1.293,1.877,2.813,2.461,4.566c0.517,1.551,0.839,3.21,0.964,4.979H78.353l0.1,0.776c0.392,3.045,1.448,5.447,3.234,7.119
	c1.778,1.664,4.009,2.483,6.639,2.483c2.062,0,3.939-0.395,5.617-1.201c1.395-0.67,2.927-1.603,4.593-2.793l0.968,4.009
	c-1.609,1.061-3.397,1.943-5.366,2.644C92.02,60.009,90,60.38,88.075,60.38c-2.278,0-4.276-0.356-6.006-1.052
	c-1.739-0.699-3.196-1.683-4.381-2.948c-1.192-1.272-2.11-2.775-2.752-4.519c-0.639-1.739-0.965-3.683-0.965-5.837
	c0-2.024,0.324-3.859,0.961-5.512c0.639-1.656,1.552-3.074,2.74-4.262c1.186-1.186,2.625-2.111,4.326-2.772
	c1.694-0.658,3.591-0.992,5.699-0.992C89.751,32.487,91.533,32.869,93.061,33.614z M87.508,36.019c-1.81,0-3.438,0.489-4.862,1.476
	c-1.435,0.995-2.615,2.57-3.57,4.654l-0.449,0.98l17.378-0.072l-0.442-0.97C93.769,38.15,91.091,36.019,87.508,36.019z"/>
<path style="fill-rule:evenodd;clip-rule:evenodd;fill:#0789BC;" d="M119.588,45.125c0.853,0.33,1.59,0.772,2.217,1.323
	c0.615,0.541,1.116,1.217,1.498,2.039c0.366,0.788,0.565,1.784,0.565,3.014c0,1.363-0.3,2.568-0.889,3.632
	c-0.603,1.089-1.409,2.012-2.423,2.773c-1.023,0.767-2.188,1.351-3.5,1.749c-1.317,0.399-2.698,0.6-4.144,0.6
	c-1.775,0-3.406-0.272-4.897-0.809c-1.341-0.483-2.703-1.219-4.087-2.217l1.777-3.143c0.56,0.399,1.069,0.739,1.525,1.023
	c0.641,0.398,1.27,0.713,1.887,0.942c0.613,0.227,1.249,0.386,1.907,0.477c0.636,0.088,1.35,0.133,2.14,0.133
	c0.615,0,1.272-0.095,1.966-0.274c0.717-0.185,1.398-0.474,2.043-0.865c0.663-0.403,1.224-0.916,1.677-1.536
	c0.495-0.677,0.731-1.474,0.731-2.358c0-1.043-0.343-1.94-1.071-2.614c-0.638-0.591-1.417-1.063-2.321-1.425
	c-0.354-0.164-0.762-0.231-1.195-0.237c-0.215-0.041-0.45-0.071-0.704-0.093c-0.233-0.019-0.466-0.048-0.699-0.087l-2.805-0.562
	c-0.938-0.203-1.839-0.457-2.715-0.763c-0.83-0.289-1.542-0.691-2.143-1.198c-0.592-0.499-1.068-1.122-1.427-1.878
	c-0.344-0.723-0.532-1.644-0.532-2.789c0-1.248,0.253-2.319,0.738-3.234c0.498-0.938,1.176-1.732,2.041-2.385
	c0.876-0.662,1.884-1.173,3.031-1.529c1.145-0.355,2.377-0.536,3.698-0.536c0.713,0,1.494,0.091,2.346,0.269
	c0.873,0.183,1.747,0.427,2.621,0.732c0.879,0.307,1.726,0.654,2.544,1.042c0.616,0.293,1.186,0.58,1.711,0.861l-1.304,3.551
	c-1.227-0.879-2.396-1.547-3.507-1.991c-1.34-0.536-2.727-0.805-4.159-0.805c-0.399,0-0.887,0.032-1.464,0.099
	c-0.601,0.07-1.173,0.209-1.714,0.421c-0.577,0.226-1.082,0.567-1.509,1.018c-0.493,0.523-0.723,1.182-0.723,1.921
	c0,0.964,0.326,1.791,1.032,2.384c0.594,0.499,1.293,0.887,2.077,1.163c0.394,0.131,0.815,0.254,1.252,0.363
	c0.434,0.108,0.889,0.206,1.366,0.293c0.445,0.081,0.9,0.182,1.366,0.303c0.5,0.131,0.989,0.239,1.467,0.326
	C117.803,44.49,118.704,44.783,119.588,45.125z"/>
<path style="fill-rule:evenodd;clip-rule:evenodd;fill:#0789BC;" d="M142.629,45.125c0.853,0.33,1.59,0.772,2.217,1.323
	c0.615,0.541,1.116,1.217,1.498,2.039c0.366,0.788,0.565,1.784,0.565,3.014c0,1.363-0.301,2.569-0.889,3.632
	c-0.603,1.089-1.408,2.012-2.423,2.773c-1.023,0.767-2.188,1.351-3.5,1.749c-1.318,0.399-2.698,0.6-4.144,0.6
	c-1.775,0-3.405-0.272-4.897-0.809c-1.341-0.483-2.703-1.219-4.087-2.217l1.776-3.143c0.561,0.399,1.069,0.739,1.526,1.023
	c0.641,0.398,1.27,0.713,1.887,0.942c0.613,0.227,1.249,0.386,1.907,0.477c0.637,0.088,1.35,0.133,2.14,0.133
	c0.615,0,1.272-0.095,1.966-0.274c0.717-0.185,1.399-0.474,2.042-0.865c0.664-0.403,1.225-0.916,1.678-1.536
	c0.495-0.677,0.731-1.474,0.731-2.358c0-1.043-0.343-1.94-1.071-2.614c-0.638-0.591-1.416-1.063-2.321-1.425
	c-0.353-0.164-0.762-0.231-1.194-0.237c-0.215-0.041-0.45-0.071-0.704-0.093c-0.233-0.019-0.466-0.048-0.699-0.087l-2.805-0.562
	c-0.938-0.203-1.839-0.457-2.715-0.763c-0.83-0.289-1.542-0.691-2.143-1.198c-0.592-0.499-1.068-1.122-1.427-1.878
	c-0.343-0.723-0.531-1.644-0.531-2.789c0-1.248,0.253-2.319,0.738-3.234c0.498-0.938,1.176-1.732,2.041-2.385
	c0.876-0.662,1.884-1.173,3.031-1.529c1.145-0.355,2.377-0.536,3.698-0.536c0.713,0,1.494,0.091,2.346,0.269
	c0.873,0.183,1.747,0.427,2.621,0.732c0.879,0.307,1.726,0.654,2.544,1.042c0.617,0.293,1.186,0.58,1.711,0.861l-1.304,3.551
	c-1.227-0.879-2.396-1.547-3.507-1.991c-1.34-0.536-2.727-0.805-4.159-0.805c-0.399,0-0.887,0.032-1.464,0.099
	c-0.601,0.07-1.173,0.209-1.714,0.421c-0.577,0.226-1.083,0.567-1.508,1.018c-0.494,0.523-0.723,1.182-0.723,1.921
	c0,0.964,0.326,1.791,1.032,2.384c0.594,0.499,1.293,0.887,2.076,1.163c0.394,0.131,0.815,0.254,1.253,0.363
	c0.433,0.108,0.889,0.206,1.366,0.293c0.445,0.081,0.9,0.182,1.366,0.303c0.5,0.131,0.989,0.239,1.467,0.326
	C140.845,44.49,141.746,44.783,142.629,45.125z"/>
<path style="fill-rule:evenodd;clip-rule:evenodd;fill:#57595C;" d="M268.523,12.367c0-3.245,3.718-5.876,8.305-5.876l25.863,3.285
	c4.587,0,8.305,2.63,8.305,5.876v37.852c0,3.245-3.719,5.876-8.305,5.876l-25.863,3.942c-4.587,0-8.305-2.631-8.305-5.876V12.367z"
	/>
<path style="fill:none;stroke:#CFD2D5;stroke-width:0.9807;stroke-miterlimit:3.8636;" d="M268.523,12.367
	c0-3.245,3.718-5.876,8.305-5.876l25.863,3.285c4.587,0,8.305,2.63,8.305,5.876v37.852c0,3.245-3.719,5.876-8.305,5.876
	l-25.863,3.942c-4.587,0-8.305-2.631-8.305-5.876V12.367z"/>
<path style="fill-rule:evenodd;clip-rule:evenodd;fill:#57595C;" d="M278.791,9.704c0-3.91,4.103-7.08,9.164-7.08l28.537,3.958
	c5.061,0,9.164,3.17,9.164,7.079v45.602c0,3.91-4.103,7.079-9.164,7.079l-28.537,4.75c-5.061,0-9.164-3.17-9.164-7.079V9.704z"/>
<path style="fill:none;stroke:#CFD2D5;stroke-miterlimit:3.8636;" d="M278.791,9.704c0-3.91,4.103-7.08,9.164-7.08l28.537,3.958
	c5.061,0,9.164,3.17,9.164,7.079v45.602c0,3.91-4.103,7.079-9.164,7.079l-28.537,4.75c-5.061,0-9.164-3.17-9.164-7.079V9.704z"/>
<path style="fill-rule:evenodd;clip-rule:evenodd;fill:#57595C;" d="M292.915,8.765c0-4.289,4.568-7.765,10.203-7.765l31.773,4.161
	c5.84,0.812,10.204,2.935,10.204,7.224v48.757c0.395,4.967-5.829,9.32-10.204,9.93l-31.773,5.029
	c-5.635,0-10.203-3.477-10.203-7.765V8.765z"/>
<path style="fill:none;stroke:#CFD2D5;stroke-miterlimit:3.8636;" d="M292.915,8.765c0-4.289,4.568-7.765,10.203-7.765l31.773,4.161
	c5.84,0.812,10.204,2.935,10.204,7.224v48.757c0.395,4.967-5.829,9.32-10.204,9.93l-31.773,5.029
	c-5.635,0-10.203-3.477-10.203-7.765V8.765z"/>
<path style="fill:none;stroke:#CFD2D5;stroke-width:0.6735;stroke-miterlimit:3.8636;stroke-dasharray:1,1;" d="M279.043,9.722
	c0-3.91,4.103-7.079,9.164-7.079l28.537,3.958c4.933,0.725,9.164,3.17,9.164,7.079v44.881c0,3.91-4.456,7.616-9.164,8.162
	l-28.537,4.389c-5.061,0-9.164-3.17-9.164-7.079V9.722z"/>
<path style="fill:none;stroke:#CFD2D5;stroke-width:0.6735;stroke-miterlimit:3.8636;stroke-dasharray:1,1;" d="M268.474,12.502
	c0-3.266,3.656-6.094,8.166-6.094l25.429,3.185c4.403,0.825,8.166,2.828,8.166,6.094v37.009c0,3.266-3.98,6.113-8.166,6.996
	l-25.429,3.968c-4.51,0-8.166-2.648-8.166-5.914V12.502z"/>
</svg>
