<?xml version="1.0" encoding="utf-8"?>
<!-- Generator: Adobe Illustrator 17.1.0, SVG Export Plug-In . SVG Version: 6.00 Build 0)  -->
<!DOCTYPE svg PUBLIC "-//W3C//DTD SVG 1.1//EN" "http://www.w3.org/Graphics/SVG/1.1/DTD/svg11.dtd">
<svg version="1.1" id="Layer_1" xmlns="http://www.w3.org/2000/svg" xmlns:xlink="http://www.w3.org/1999/xlink" x="0px" y="0px"
	 viewBox="0 0 600 160" style="enable-background:new 0 0 600 160;" xml:space="preserve">
<g>
	<g>
		<path style="fill:#393535;" d="M576.513,78.639c0,12.102-0.001,24.204,0,36.306c0.001,10.295-5.797,17.841-15.987,19.943
			c-8.442,1.741-17.004,2.911-25.523,4.269c-8.064,1.285-16.173,2.313-24.205,3.768c-8.336,1.51-15.313-0.364-20.433-7.356
			c-1.002-1.369-1.792-1.312-3.186-0.948c-6.205,1.622-12.01,0.805-17.146-3.274c-2.075-1.648-3.752-3.761-4.086-6.347
			c-0.253-1.962-0.954-2.204-2.622-2.151c-3.589,0.115-6.809-1.052-9.788-3.076c-3.282-2.229-4.7-5.215-4.69-9.176
			c0.061-23.381,0.236-46.766-0.085-70.143c-0.108-7.848,5.355-11.429,10.687-12.608c1.967-0.435,4.068-1.135,6.217-0.212
			c0.959,0.412,1.956,0.129,2.792-0.831c4.922-5.657,11.375-6.493,18.212-5.206c4.011,0.755,7.493,0.758,11.284-1.365
			c5.768-3.231,12.117-1.435,18.221-0.676c11.938,1.484,23.863,3.071,35.781,4.706c5.411,0.742,10.899,1.145,16.033,3.306
			c6.113,2.573,8.518,6.069,8.522,12.651C576.519,53.025,576.514,65.832,576.513,78.639z"/>
		<path style="fill:#097EA9;" d="M248.293,81.19c-4.618-3.165-9.551-4.943-15.21-4.098c-2.881,0.43-5.265,1.496-5.816,4.611
			c-0.569,3.211,1.421,4.93,4.124,6.075c3.572,1.513,7.477,1.704,11.133,2.849c4.629,1.451,8.821,3.562,9.558,9.05
			c0.871,6.487-1.54,11.221-7.349,14.137c-7.691,3.862-15.294,3.156-22.735-0.944c-2.622-1.445-1.103-2.921-0.37-4.613
			c1.014-2.341,2.269-1.256,3.548-0.469c5.176,3.184,10.556,3.599,15.992,0.884c3.148-1.572,4.571-4.296,3.87-7.869
			c-0.667-3.401-3.39-4.577-6.269-5.301c-3.152-0.792-6.383-1.269-9.573-1.911c-7.494-1.51-9.498-6.477-9.501-10.348
			c-0.004-5.301,4.532-10.227,10.282-11.783c6.816-1.845,12.848,0.414,18.85,3.193c1.254,0.58,1.456,1.446,1.085,2.541
			C249.465,78.513,248.872,79.782,248.293,81.19z"/>
		<path style="fill:#0A7EA9;" d="M51.501,81.162c-4.49-3.311-9.455-4.929-15.067-4.048c-2.663,0.418-5.154,1.224-5.732,4.271
			c-0.635,3.349,1.242,5.438,4.189,6.382c4.087,1.31,8.277,2.3,12.427,3.411c5.09,1.362,8.141,4.678,8.533,9.881
			c0.354,4.707-1.592,8.662-5.499,11.455c-7.051,5.043-17.821,4.944-25.123,0.171c-2.196-1.436-1.195-2.433-0.473-3.923
			c0.891-1.839,1.758-2.387,3.689-1.093c4.441,2.974,9.354,3.48,14.397,1.846c3.88-1.257,6.359-4.604,6.052-7.72
			c-0.309-3.136-3.356-5.634-7.383-6.382c-3.88-0.72-7.809-1.216-11.552-2.643c-3.45-1.315-5.873-3.48-6.323-7.204
			c-0.528-4.369,0.213-8.471,4.085-11.271c6.819-4.93,14.009-4.071,21.267-1.147C54.36,75.312,54.469,75.706,51.501,81.162z"/>
		<path style="fill:#097EA9;" d="M197.593,70.735c4.971,0.222,9.636,1.663,13.906,4.116c2.654,1.525,0.21,3.444-0.284,5.036
			c-0.592,1.905-1.741,0.54-2.594-0.001c-3.996-2.53-8.303-3.42-13.005-2.806c-3.109,0.406-5.553,1.812-6.024,4.904
			c-0.469,3.084,1.743,4.745,4.467,5.881c3.04,1.268,6.294,1.568,9.418,2.439c8.857,2.467,11.745,5.778,11.25,13.329
			c-0.368,5.608-6.365,11.225-13.102,12.258c-6.075,0.931-11.803,0.121-17.196-3.053c-2.159-1.271-1.686-2.391-0.646-4.061
			c0.986-1.583,1.553-2.491,3.68-1.118c5.008,3.234,10.476,3.861,15.947,1.139c3.438-1.711,5.007-4.844,4.185-8.05
			c-0.866-3.377-3.6-4.645-6.722-5.292c-3.069-0.636-6.182-1.112-9.199-1.938c-6.359-1.74-9.094-4.684-9.383-9.727
			c-0.275-4.791,2.884-9.337,8.17-11.549C192.717,71.298,195.075,70.615,197.593,70.735z"/>
		<path style="fill:#383434;" d="M266.907,96.831c0-5.285-0.089-10.572,0.045-15.854c0.051-2-0.54-2.75-2.54-2.507
			c-1.157,0.141-2.363-0.11-3.516,0.045c-2.254,0.303-2.694-0.692-2.752-2.772c-0.066-2.37,1.172-2.282,2.83-2.297
			c5.931-0.054,5.921-0.091,5.94-5.883c0.006-1.995-0.172-4.03,0.154-5.977c1.423-8.501,7.336-11.922,16.472-9.612
			c1.457,0.368,2.828,1.065,4.268,1.514c2.856,0.892,3.052,2.428,1.562,4.84c-0.932,1.509-1.513,2.085-3.027,0.669
			c-0.813-0.76-1.983-1.209-3.063-1.603c-5.134-1.872-9.384,0.808-10.021,6.262c-1.16,9.927-1.16,9.927,8.735,9.926
			c1.057,0,2.116,0.04,3.171-0.01c1.728-0.082,3.055-0.194,3.02,2.412c-0.032,2.376-0.914,2.662-2.883,2.577
			c-3.165-0.137-6.352,0.129-9.508-0.092c-2.311-0.161-2.664,0.738-2.645,2.79c0.098,10.334-0.051,20.671,0.111,31.004
			c0.041,2.616-0.878,3.034-3.198,3.019c-2.245-0.014-3.349-0.252-3.225-2.952C267.076,107.174,266.907,101.998,266.907,96.831z"/>
		<path style="fill:#077EA9;" d="M70.726,72.851c0.04-2.345,0.097-4.69,0.112-7.036c0.007-1.082,0.07-1.752,1.438-2.279
			c4.966-1.913,4.92-2.031,4.917,3.209C77.19,73.5,77.19,73.501,84,73.471c2.935-0.013,5.876,0.084,8.802-0.083
			c2.132-0.121,2.831,0.543,2.814,2.751c-0.016,2.132-0.834,2.526-2.703,2.48c-4.341-0.107-8.691,0.086-13.027-0.092
			c-2.249-0.092-2.773,0.715-2.733,2.816c0.119,6.337,0.45,12.71-0.063,19.008c-0.613,7.537,6.428,12.007,12.87,8.924
			c3.245-1.553,3.381,0.44,4.16,2.297c0.403,0.959,0.017,1.626-0.826,1.95c-3.892,1.494-7.681,3.296-12.101,2.57
			c-6.506-1.069-10.305-5.299-10.338-11.942c-0.038-7.63-0.084-15.262,0.035-22.89c0.033-2.131-0.51-3.059-2.732-2.755
			c-1.037,0.142-2.11,0.024-3.166,0.024c-4.876-0.001-4.876-0.001-4.538-4.912C63.819,72.566,67.364,73.935,70.726,72.851z"/>
		<path style="fill:#383534;" d="M302.381,78.24c1.924-1.467,3.489-2.674,5.069-3.861c4.549-3.419,9.26-2.107,13.984-0.473
			c1.272,0.44,1.297,1.334,0.502,2.078c-1.206,1.129-0.203,4.547-3.496,3.48c-2.707-0.877-5.426-1.444-8.235-0.611
			c-4.854,1.441-7.97,5.585-8.052,11.039c-0.113,7.517-0.211,15.041,0.016,22.552c0.089,2.959-1.382,2.76-3.398,2.807
			c-2.061,0.048-3.084-0.179-3.05-2.748c0.159-11.863,0.067-23.729,0.074-35.595c0.001-1.785-0.589-3.671,2.601-3.557
			c2.709,0.097,4.299,0.443,3.718,3.575C302.059,77.227,302.237,77.57,302.381,78.24z"/>
		<path style="fill:#097EA9;" d="M106.954,78.279c1.645-1.224,3.089-2.17,4.387-3.286c4.4-3.783,9.188-3.246,14.146-1.446
			c1.23,0.447,2.482,0.978,1.208,2.367c-1.089,1.187-0.023,4.419-3.422,3.497c-10.47-2.841-16.451,1.881-16.454,12.879
			c-0.002,6.456-0.097,12.913,0.048,19.366c0.056,2.51-0.28,3.63-3.304,3.687c-3.343,0.062-3.132-1.598-3.121-3.852
			c0.055-11.502,0.044-23.005,0.007-34.508c-0.006-1.957-0.297-3.712,2.731-3.471c2.254,0.18,4.326-0.068,3.659,3.209
			C106.759,77.117,106.894,77.559,106.954,78.279z"/>
		<path style="fill:#D49F8C;" d="M70.726,72.851c-3.32,1.649-6.865,0.294-10.272,0.766C63.775,71.971,67.32,73.339,70.726,72.851z"
			/>
		<path style="fill:#FFFFFF;" d="M573.619,78.696c0.002,12.096-0.002,24.193,0.003,36.289c0.003,8.662-5.382,15.558-14.015,17.094
			c-13.082,2.328-26.231,4.282-39.352,6.391c-3.911,0.629-7.819,1.286-11.737,1.863c-5.71,0.842-10.605-0.773-14.586-5.008
			c-0.241-0.256-0.417-0.621-0.708-0.776c-1.69-0.9,5.011-2.363-0.311-3.281c-2.588-0.446-1.276-3.373-1.281-5.099
			c-0.09-29.811-0.067-59.621-0.044-89.432c0.001-1.585-0.752-3.821,2.328-3.392c0.504,0.07,0.866-0.334,0.87-0.867
			c0.007-0.913-0.593-1.189-1.387-1.162c-2.014,0.069-1.799-1.092-1.088-2.214c1.293-2.042,2.095-4.963,5.663-3.515
			c0.648,0.263,2.184,0.031,1.523-1.036c-1.599-2.585,0.862-2.048,1.728-2.406c4.134-1.711,8.36-0.425,12.471,0.089
			c15.405,1.925,30.776,4.116,46.162,6.196c2.434,0.329,4.753,1.03,7.027,1.938c4.497,1.795,6.804,4.931,6.765,9.926
			C573.552,53.093,573.618,65.895,573.619,78.696z"/>
		<path style="fill:#FFFFFF;" d="M490.456,25.305c-1.468,1.829-0.252,5.322-3.851,5.512c-0.481,0.025-0.601,1.557,0.134,1.642
			c2.543,0.293,1.664,2.137,1.666,3.429c0.038,30.899-0.004,61.799,0.104,92.698c0.008,2.316-0.824,3.008-2.802,3.287
			c-3.751,0.528-7.456,0.818-10.966-1.061c-3.866-2.07-6.184-4.913-6.167-9.67c0.1-28.665,0.029-57.331,0.072-85.996
			c0.003-1.782-0.835-4.206,2.224-4.617C475.1,20.546,483.376,25.253,490.456,25.305z"/>
		<path style="fill:#FEFEFE;" d="M465.664,74.975c0,13.853-0.065,27.706,0.056,41.557c0.023,2.694-0.84,3.456-3.425,3.172
			c-5.918-0.651-10.871-3.385-10.73-11.426c0.395-22.533,0.395-45.081-0.004-67.614c-0.138-7.804,7.528-10.747,12.919-10.207
			c1.712,0.171,1.292,1.271,1.292,2.261c0.002,14.086,0.001,28.172,0.001,42.258C465.737,74.975,465.701,74.975,465.664,74.975z"/>
		<path style="fill:#383434;" d="M339.475,93.426c9.858,0.134,19.719,0.028,29.579,0.07c1.881,0.008,2.8,0.019,2.411-2.599
			c-1.978-13.329-9.724-20.004-23.066-19.435c-8.427,0.359-14.945,5.242-18.114,13.11c-1.696,4.211-1.69,8.543-1.192,12.778
			c0.893,7.599,4.529,13.721,11.732,17.046c7.953,3.671,15.995,2.876,23.649-0.787c6.919-3.311,6.271-1.766,4.287-9.405
			c-3.313,1.722-5.989,3.838-9.21,4.943c-10.839,3.715-20.811-0.872-23.093-12.068C335.783,93.767,336.573,93.387,339.475,93.426z
			 M349.924,77.086c6.983-0.167,11.583,3.378,14.286,11.217c-9.277,0-18.275,0-27.308,0
			C338.76,81.553,343.824,77.231,349.924,77.086z"/>
		<path style="fill:#383434;" d="M388.013,93.413c4.925,0.214,9.865,0.061,14.8,0.061c5.286,0,10.574-0.057,15.859,0.033
			c1.667,0.028,2.275-0.345,2.042-2.151c-0.887-6.886-3.261-13.035-9.325-16.894c-7.616-4.848-15.649-4.276-23.268-0.131
			c-7.56,4.114-10.342,11.274-10.069,19.499c0.423,12.725,6.667,20.335,18.356,22.492c6.776,1.25,13.072-0.734,19.288-3.507
			c3.498-1.56,3.998-3.391,2.938-6.745c-0.668-2.113-1.228-1.697-2.572-0.801c-2.229,1.486-4.548,2.815-7.083,3.782
			c-11.189,4.267-21.132-1.024-23.466-12.517C385.082,94.405,385.35,93.297,388.013,93.413z M386.85,85.883
			c3.104-6.239,7.784-9.132,14.495-8.779c5.404,0.284,9.775,4.266,12.172,11.333c-8.633,0-16.946-0.07-25.256,0.042
			C385.687,88.514,385.971,87.649,386.85,85.883z"/>
		<path style="fill:#087EA9;" d="M162.935,72.292c-11.66-3.471-26.077,1.018-28.833,15.922c-2.183,11.806,3.115,23.996,14.891,27.36
			c7.123,2.034,13.974,1.025,20.428-2.096c6.867-3.322,6.223-1.625,4.189-9.342c-2.808,1.58-5.327,3.376-8.117,4.501
			c-11.046,4.453-22.113,0.265-24.289-12.302c-0.507-2.928,0.319-3.043,2.628-3.025c10.1,0.08,20.202,0.05,30.303,0.007
			c0.99-0.004,2.452,0.647,2.498-1.42C176.801,84.332,170.266,74.474,162.935,72.292z M141.693,88.229
			c1.972-6.914,6.916-10.736,13.094-11.208c6.974-0.533,12.537,4.739,14.226,11.208C159.884,88.229,150.797,88.229,141.693,88.229z"
			/>
		<path style="fill:#535051;" d="M544.85,53.286c-0.088,0.888,0.201,1.836-1.051,1.907c-0.956,0.054-1.163-0.548-1.138-1.305
			c0.029-0.87-0.255-1.994,1.211-1.962C544.878,51.95,544.74,52.777,544.85,53.286z"/>
		<path style="fill:#585657;" d="M519.4,61.372c0.015,0.906-0.233,1.675-1.319,1.545c-1.223-0.146-0.779-1.196-0.824-1.907
			c-0.043-0.675,0.002-1.492,0.995-1.408C519.298,59.69,519.444,60.502,519.4,61.372z"/>
		<path style="fill:#525051;" d="M543.735,69.517c0.99-0.04,1.117,0.654,1.076,1.37c-0.041,0.723,0.358,1.719-0.867,1.902
			c-1.177,0.176-1.308-0.597-1.296-1.487C542.66,70.489,542.59,69.635,543.735,69.517z"/>
		<path style="fill:#565454;" d="M518.147,77.21c1.118,0.128,1.269,0.868,1.261,1.736c-0.008,0.885-0.207,1.648-1.29,1.601
			c-1.008-0.043-0.874-0.888-0.86-1.527C517.273,78.292,516.985,77.333,518.147,77.21z"/>
		<path style="fill:#525050;" d="M543.672,87.13c1.274,0.008,1.153,0.927,1.148,1.711c-0.004,0.655,0.12,1.444-0.875,1.57
			c-1.187,0.15-1.323-0.618-1.286-1.505C542.691,88.135,542.491,87.206,543.672,87.13z"/>
		<path style="fill:#565454;" d="M519.397,96.846c-0.039,0.791-0.403,1.401-1.233,1.3c-1.426-0.173-0.833-1.37-0.896-2.163
			c-0.062-0.772,0.287-1.344,1.22-1.09C519.543,95.179,519.371,96.065,519.397,96.846z"/>
		<path style="fill:#524F50;" d="M543.839,104.74c1.215,0.124,0.951,1.074,0.981,1.83c0.036,0.898-0.162,1.696-1.327,1.451
			c-1.148-0.241-0.793-1.236-0.827-1.981C542.632,105.278,542.852,104.644,543.839,104.74z"/>
		<path style="fill:#565354;" d="M513.013,110.654c0.92-0.023,1.323,0.535,1.341,1.019c0.043,1.134-0.961,1.464-1.809,1.768
			c-0.864,0.309-0.954-0.505-1.047-1C511.248,111.108,512.788,111.413,513.013,110.654z"/>
		<path style="fill:#545252;" d="M539.039,123.662c-0.936,0.156-1.46-0.211-1.534-0.79c-0.144-1.125,0.836-1.53,1.631-1.868
			c0.649-0.276,1.107,0.385,1.242,0.863C540.747,123.17,539.293,123.063,539.039,123.662z"/>
		<path style="fill:#575555;" d="M528.455,127.96c-0.889-0.053-1.923,0.114-1.824-1.12c0.064-0.805,0.835-1.021,1.59-1.075
			c0.935-0.067,1.678,0.143,1.676,1.248C529.896,128.079,529.004,127.843,528.455,127.96z"/>
		<path style="fill:#565455;" d="M499.216,34.154c-0.673-0.089-1.54,0.142-1.582-0.926c-0.046-1.156,0.735-1.317,1.648-1.26
			c0.731,0.046,1.519,0.177,1.614,1.031C501.041,34.298,499.965,34.05,499.216,34.154z"/>
		<path style="fill:#565454;" d="M511.199,26.196c-0.178,0.61-0.202,1.487-0.871,1.326c-0.776-0.188-1.984,0.042-2.191-1.19
			c-0.098-0.585,0.143-1.274,0.848-1.217C509.823,25.184,510.809,25.217,511.199,26.196z"/>
		<path style="fill:#605D5E;" d="M515.517,26.142c0.532,0.326,1.775-0.298,1.658,1.044c-0.062,0.715-0.537,1.33-1.368,1.191
			c-0.856-0.143-1.998-0.217-1.914-1.447C513.945,26.166,514.669,25.881,515.517,26.142z"/>
		<path style="fill:#545253;" d="M519.388,43.355c0.015,1.041,0.025,1.918-1.148,1.951c-1.036,0.029-0.962-0.778-0.997-1.47
			c-0.044-0.875,0.084-1.785,1.126-1.83C519.259,41.966,519.344,42.83,519.388,43.355z"/>
		<path style="fill:#494848;" d="M507.29,115.884c-0.703,0.043-1.158-0.172-1.253-0.904c-0.201-1.55,1.14-1.16,1.877-1.442
			c1.109-0.423,1.203,0.799,1.142,1.177C508.919,115.561,507.986,115.68,507.29,115.884z"/>
		<path style="fill:#4D4B4B;" d="M543.06,116.585c0.61,0.107,1.279,0.334,0.824,1.066c-0.389,0.626-0.336,1.767-1.432,1.738
			c-0.796-0.021-1.358-0.547-1.053-1.381C541.66,117.299,541.946,116.4,543.06,116.585z"/>
		<path style="fill:#464646;" d="M511.139,36.835c-0.55-0.533-1.886-0.304-1.694-1.662c0.08-0.568,0.275-1.325,0.965-0.925
			c0.685,0.397,1.992,0.235,1.906,1.54C512.276,36.391,511.849,36.792,511.139,36.835z"/>
		<path style="fill:#4D4B4B;" d="M543.961,36.63c-0.063,0.715-0.524,1.03-1.141,0.978c-1.11-0.094-1.469-0.96-1.557-1.887
			c-0.06-0.63,0.423-1.126,1.039-1.049C543.389,34.807,543.393,35.995,543.961,36.63z"/>
		<path style="fill:#605E5E;" d="M522.445,126.57c1.249-0.13,1.486,0.681,1.51,1.31c0.048,1.275-1.188,0.763-1.826,1.018
			c-0.85,0.34-1.338-0.284-1.29-1.092C520.906,126.68,522.107,127.022,522.445,126.57z"/>
		<path style="fill:#575555;" d="M534.597,29.832c-0.285,0.858-0.515,1.748-1.412,1.322c-0.704-0.334-2.047-0.243-1.772-1.692
			c0.13-0.688,0.592-1.161,1.19-0.804C533.268,29.055,534.568,28.652,534.597,29.832z"/>
		<path style="fill:#535151;" d="M506.651,130.349c0.139,1.03-0.555,1.093-1.29,1.12c-0.809,0.03-1.837,0.178-1.894-0.917
			c-0.05-0.97,0.878-1.192,1.733-1.243C505.974,129.264,506.585,129.422,506.651,130.349z"/>
		<path style="fill:#605D5E;" d="M499.103,132.597c-1.057,0.093-1.539-0.346-1.524-1.144c0.02-1.114,1.116-0.988,1.777-1.262
			c0.874-0.363,1.32,0.429,1.435,1.048C501.091,132.858,499.262,131.742,499.103,132.597z"/>
		<path style="fill:#525050;" d="M517.297,106.573c0.677,0.219,1.33,0.271,0.959,1.125c-0.357,0.821-0.601,1.831-1.731,1.762
			c-0.494-0.03-1.137-0.505-0.849-1.185C516.002,107.504,516.272,106.536,517.297,106.573z"/>
		<path style="fill:#494848;" d="M522.895,28.117c-0.043,0.938-0.672,1.044-1.417,0.996c-0.882-0.058-1.611-0.333-1.468-1.395
			c0.136-1.01,0.972-0.706,1.604-0.703C522.336,27.017,523.028,27.098,522.895,28.117z"/>
		<path style="fill:#3F3F3F;" d="M528.565,28.917c-0.014,1.057-0.759,0.945-1.468,0.919c-0.784-0.028-1.371-0.252-1.335-1.192
			c0.04-1.07,0.84-0.882,1.504-0.904C528.067,27.713,528.654,27.941,528.565,28.917z"/>
		<path style="fill:#413D3E;" d="M544.791,112.221c0.005,0.896-0.012,1.559-1.011,1.557c-1.236-0.002-1.056-0.882-1.099-1.656
			c-0.047-0.866,0.344-1.227,1.204-1.175C544.909,111.008,544.759,111.757,544.791,112.221z"/>
		<path style="fill:#535252;" d="M503.241,115.65c0.142,1.285-1.021,1.043-1.661,1.355c-0.673,0.328-1.124-0.049-1.213-0.747
			c-0.181-1.426,1.095-1.303,1.868-1.595C503.031,114.362,503.161,115.048,503.241,115.65z"/>
		<path style="fill:#474546;" d="M495.751,115.861c0.999-0.046,1.78-0.186,1.765,0.846c-0.016,1.072-0.86,1.168-1.666,1.266
			c-0.639,0.078-1.05-0.075-1.151-0.822C494.546,116.019,495.132,115.767,495.751,115.861z"/>
		<path style="fill:#494747;" d="M533.532,126.685c-0.822,0.229-1.049-0.562-1.093-0.959c-0.117-1.056,0.822-1.231,1.592-1.4
			c0.844-0.185,1.454,0.395,1.385,1.078C535.322,126.339,534.322,126.455,533.532,126.685z"/>
		<path style="fill:#444242;" d="M516.908,127.748c0.785-0.351,1.054,0.104,1.095,0.75c0.069,1.086-0.74,1.277-1.562,1.412
			c-0.852,0.14-1.28-0.201-1.275-1.094C515.173,127.491,516.292,128.031,516.908,127.748z"/>
		<path style="fill:#414040;" d="M512.343,129.618c-0.043,0.961-0.724,1.042-1.461,1.091c-0.787,0.053-1.405-0.094-1.403-1.05
			c0.003-0.97,0.688-1.068,1.432-1.067C511.634,128.594,512.358,128.592,512.343,129.618z"/>
		<path style="fill:#4D4A4A;" d="M505.303,25.916c-0.056,0.877-0.755,0.664-1.456,0.53c-0.652-0.124-1.407-0.024-1.395-1.051
			c0.01-0.891,0.424-1.239,1.281-1.093C504.55,24.441,505.353,24.606,505.303,25.916z"/>
		<path style="fill:#424041;" d="M519.354,66.972c0.014,0.871,0.064,1.583-0.96,1.674c-1.043,0.093-1.135-0.564-1.112-1.319
			c0.02-0.664-0.172-1.481,0.905-1.519C519.102,65.777,519.438,66.272,519.354,66.972z"/>
		<path style="fill:#413F40;" d="M543.772,63.738c0.992-0.013,0.997,0.687,1.029,1.396c0.04,0.897-0.082,1.615-1.257,1.475
			c-1.014-0.121-0.832-0.889-0.853-1.542C542.668,64.322,542.791,63.677,543.772,63.738z"/>
		<path style="fill:#3E3C3D;" d="M544.792,59.535c0.017,0.722-0.042,1.343-1.024,1.354c-1.26,0.014-1.043-0.871-1.085-1.635
			c-0.047-0.86,0.339-1.22,1.199-1.174C544.914,58.137,544.771,58.876,544.792,59.535z"/>
		<path style="fill:#444142;" d="M517.275,73c0.072-0.621-0.208-1.431,0.848-1.512c1.139-0.087,1.252,0.615,1.251,1.506
			c-0.001,0.792-0.239,1.314-1.094,1.364C517.268,74.418,517.28,73.698,517.275,73z"/>
		<path style="fill:#444243;" d="M519.356,55.133c0.061,0.861-0.014,1.62-1.166,1.607c-0.756-0.009-0.946-0.502-0.903-1.11
			c0.051-0.709-0.334-1.689,0.938-1.768C519.15,53.804,519.399,54.339,519.356,55.133z"/>
		<path style="fill:#414040;" d="M519.346,49.471c0.058,0.907-0.079,1.532-1.052,1.551c-1.044,0.021-1.015-0.708-1.015-1.419
			c0-0.711-0.03-1.45,1.014-1.416C519.237,48.217,519.433,48.809,519.346,49.471z"/>
		<path style="fill:#423F40;" d="M544.798,47.604c0.018,0.725-0.024,1.387-1.009,1.417c-0.953,0.029-1.128-0.545-1.111-1.319
			c0.018-0.814-0.073-1.671,1.183-1.582C544.89,46.194,544.76,46.939,544.798,47.604z"/>
		<path style="fill:#3F3C3D;" d="M543.69,75.714c0.965-0.099,1.142,0.497,1.099,1.263c-0.035,0.633,0.185,1.402-0.833,1.523
			c-1.134,0.135-1.311-0.515-1.279-1.428C542.702,76.359,542.708,75.685,543.69,75.714z"/>
		<path style="fill:#3F3C3D;" d="M544.791,41.842c-0.001,0.686,0.046,1.367-0.96,1.413c-0.918,0.042-1.174-0.423-1.149-1.227
			c0.025-0.789-0.123-1.643,1.136-1.586C544.819,40.487,544.794,41.149,544.791,41.842z"/>
		<path style="fill:#484546;" d="M517.238,38.986c-0.161,0.685-0.651,1.003-1.241,0.846c-0.789-0.209-1.458-0.712-1.51-1.623
			c-0.036-0.621,0.409-1.317,0.953-1.116C516.253,37.393,516.986,38.033,517.238,38.986z"/>
		<path style="fill:#403D3E;" d="M543.082,84.301c-0.131,0.015-0.469-0.459-0.392-1.295c0.057-0.62-0.248-1.447,0.753-1.611
			c0.779-0.127,1.37,0.099,1.334,1.024C544.749,83.14,545.116,84.104,543.082,84.301z"/>
		<path style="fill:#434142;" d="M518.334,83.435c1.132,0.103,1.017,0.863,1.032,1.568c0.019,0.862-0.348,1.329-1.24,1.263
			c-1.08-0.08-0.807-0.928-0.843-1.573C517.239,83.9,517.428,83.281,518.334,83.435z"/>
		<path style="fill:#424141;" d="M519.344,90.489c0.073,0.873-0.151,1.444-1.037,1.478c-1.293,0.05-0.978-0.93-1.026-1.657
			c-0.053-0.805,0.231-1.29,1.15-1.19C519.381,89.224,519.385,89.889,519.344,90.489z"/>
		<path style="fill:#3F3D3D;" d="M543.815,96.138c-1.157,0.01-1.1-0.704-1.136-1.396c-0.048-0.943,0.203-1.553,1.31-1.403
			c1.017,0.138,0.768,0.929,0.796,1.557C544.82,95.657,544.647,96.275,543.815,96.138z"/>
		<path style="fill:#413E3F;" d="M543.847,98.989c0.826-0.083,0.971,0.548,0.941,1.302c-0.025,0.641,0.191,1.416-0.831,1.541
			c-1.148,0.14-1.319-0.529-1.277-1.445C542.713,99.681,542.716,98.998,543.847,98.989z"/>
		<path style="fill:#444142;" d="M518.437,101.072c1.018,0.1,0.907,0.856,0.927,1.564c0.024,0.866-0.337,1.357-1.232,1.252
			c-1.323-0.155-0.772-1.211-0.825-1.922C517.25,101.221,517.732,100.96,518.437,101.072z"/>
		<path style="fill:#4A4747;" d="M539.771,32.293c-0.002,0.777-0.515,1.193-1.079,1.124c-0.768-0.094-1.593-0.491-1.726-1.355
			c-0.066-0.426-0.112-1.365,0.712-1.289C538.611,30.86,539.37,31.434,539.771,32.293z"/>
		<path style="fill:#414040;" d="M505.011,32.731c0.834,0.105,1.577,0.328,1.634,1.163c0.069,1.009-0.745,1.013-1.463,0.94
			c-0.639-0.065-1.507,0.122-1.43-0.989C503.809,33.003,504.203,32.552,505.011,32.731z"/>
		<path style="fill:#555353;" d="M477.633,30.252c-0.275,1.143-1.129,1.08-1.964,1.046c-0.768-0.031-1.435-0.227-1.331-1.19
			c0.133-1.225,1.104-0.982,1.887-0.973C476.977,29.143,477.611,29.37,477.633,30.252z"/>
		<path style="fill:#514F50;" d="M486.089,118.612c-0.106,1.232-1.159,0.768-1.823,0.929c-0.742,0.179-1.511-0.072-1.417-0.938
			c0.1-0.917,0.992-1.142,1.82-1.231C485.56,117.276,485.824,117.925,486.089,118.612z"/>
		<path style="fill:#535050;" d="M478.726,118.514c1.042-0.536,1.151,0.109,1.249,0.662c0.247,1.395-0.936,1.34-1.728,1.563
			c-0.656,0.185-1.045-0.247-1.149-0.91C476.854,118.261,478.319,118.889,478.726,118.514z"/>
		<path style="fill:#413F3F;" d="M473.051,119.418c0.866-0.068,1.347,0.237,1.175,1.191c-0.171,0.95-0.938,0.859-1.612,0.928
			c-0.935,0.095-1.239-0.387-1.145-1.245C471.584,119.242,472.401,119.482,473.051,119.418z"/>
		<path style="fill:#464243;" d="M483.384,31.036c-0.044,1.002-0.796,0.939-1.474,0.945c-0.694,0.006-1.456-0.003-1.489-0.96
			c-0.039-1.149,0.755-1.223,1.635-1.155C482.804,29.925,483.441,30.072,483.384,31.036z"/>
	</g>
</g>
</svg>
